; NON-PLATED HOLES START AT T1
; THROUGH (PLATED) HOLES START AT T100
M48
INCH
T1C0.125984
T2C0.086614
T100C0.039370
T101C0.098425
T102C0.040000
T103C0.035000
T104C0.031496
T105C0.036000
T106C0.015748
T107C0.030000
T108C0.043307
T109C0.038000
T110C0.042000
%
T1
X041744Y021621
X041744Y001871
X001244Y021621
X001244Y001871
T2
X017494Y003121
X041744Y003871
X012994Y018371
X041244Y019371
X041744Y010871
X004494Y018371
X041244Y013371
T100
X004894Y014862
X004494Y010371
X008494Y004371
X013494Y010371
X036744Y010871
X037244Y012871
X012494Y004371
X037244Y019871
X006494Y010371
X009244Y012871
X036744Y009871
X004244Y012871
X037244Y017871
X036744Y007871
X006244Y012871
X007494Y004371
X010494Y004371
X005494Y004371
X009494Y010371
X011494Y004371
X036744Y008871
X004894Y016240
X002494Y004371
X037244Y018871
X003494Y010371
X013244Y012871
X008244Y012871
X037244Y016871
X003494Y004371
X036744Y006871
X012244Y012871
X002494Y010371
X010494Y010371
X005494Y010371
X036744Y005871
X007494Y010371
X011494Y010371
X009494Y004371
X037244Y015871
X004494Y004371
X008494Y010371
X037244Y014871
X036744Y004871
X007244Y012871
X006494Y004371
X010244Y012871
X037244Y013871
X005244Y012871
X036744Y003871
X011244Y012871
X012494Y010371
X013494Y004371
T101
X041744Y003871
X012994Y018371
X041244Y019371
X041744Y010871
X004494Y018371
X041244Y013371
T102
X023245Y014371
X020245Y014371
X022245Y018371
X019245Y014371
X018245Y018371
X006244Y018871
X007244Y018871
X010244Y018871
X011244Y018871
X021245Y014371
X018245Y014371
X019245Y018371
X008244Y018871
X023245Y018371
X022245Y014371
X020245Y018371
X021245Y018371
X009244Y018871
T103
X014494Y012871
X014494Y010371
T104
X036244Y021621
X038244Y021621
T105
X028744Y010871
X028744Y014871
X034744Y011871
X028744Y006871
X034744Y010871
X034744Y014871
X034744Y006871
X028744Y011871
X028744Y017871
X028744Y009871
X034744Y005871
X028744Y005871
X034744Y017871
X034744Y009871
X034744Y018871
X028744Y018871
X028744Y013871
X034744Y013871
X034744Y008871
X028744Y008871
X034744Y015871
X028744Y007871
X034744Y007871
X028744Y015871
X028744Y016871
X034744Y012871
X028744Y004871
X034744Y016871
X034744Y004871
X028744Y012871
T106
X014744Y005621
X019994Y020621
X035494Y020371
X018744Y022121
X030744Y003121
X034739Y002364
X015991Y015125
X013596Y009580
X032744Y010371
X039244Y001121
X036156Y016540
X038244Y017871
X016744Y017621
X032757Y008380
X017916Y009820
X027756Y011980
X018156Y010540
X011436Y009100
X031244Y009371
X018156Y005500
T107
X028494Y020871
X030494Y020871
T108
X003994Y002121
X005494Y002121
X006494Y002121
X002994Y002121
T109
X008994Y002121
X012994Y002121
X023254Y011854
X022257Y011854
X032994Y021621
X010494Y002121
X011494Y002121
X033994Y021621
X007994Y002121
X019257Y011854
X021257Y011854
X010244Y021371
X013994Y002121
X007244Y021371
X006244Y021371
X020257Y011854
X011244Y021371
T110
X030994Y022121
X028014Y022121
T00
M30
