G04 MADE WITH FRITZING*
G04 WWW.FRITZING.ORG*
G04 DOUBLE SIDED*
G04 HOLES PLATED*
G04 CONTOUR ON CENTER OF CONTOUR VECTOR*
%ASAXBY*%
%FSLAX23Y23*%
%MOIN*%
%OFA0B0*%
%SFA1.0B1.0*%
%ADD10C,0.138425*%
%ADD11C,0.070000*%
%ADD12C,0.039370*%
%ADD13C,0.082000*%
%ADD14C,0.066000*%
%ADD15C,0.086000*%
%ADD16C,0.076000*%
%ADD17C,0.078000*%
%ADD18C,0.083307*%
%ADD19C,0.074000*%
%ADD20C,0.075000*%
%ADD21R,0.082000X0.082000*%
%ADD22R,0.069972X0.070000*%
%ADD23R,0.000140X0.000140*%
%ADD24C,0.024000*%
%LNCOPPER1*%
G90*
G70*
G54D10*
X4124Y1937D03*
G54D11*
X3724Y1287D03*
X3724Y1387D03*
X3724Y1487D03*
G54D10*
X4124Y1337D03*
G54D11*
X3724Y1587D03*
X3724Y1687D03*
X3724Y1787D03*
X3724Y1887D03*
X3724Y1987D03*
X2849Y2087D03*
X3049Y2087D03*
G54D12*
X2776Y1198D03*
X1816Y1054D03*
X1792Y982D03*
X1816Y550D03*
X1360Y958D03*
X1144Y910D03*
X1474Y562D03*
X1874Y2212D03*
X3616Y1654D03*
X3124Y937D03*
X1674Y1762D03*
X3074Y312D03*
X3924Y112D03*
G54D13*
X3099Y2212D03*
X2801Y2212D03*
G54D11*
X3674Y587D03*
G54D10*
X4174Y1087D03*
G54D11*
X3674Y987D03*
X3674Y787D03*
X3674Y387D03*
X3674Y1087D03*
X3674Y887D03*
X3674Y687D03*
X3674Y487D03*
G54D10*
X4174Y387D03*
G54D14*
X249Y437D03*
X349Y437D03*
X449Y437D03*
X549Y437D03*
X649Y437D03*
X749Y437D03*
X849Y437D03*
X949Y437D03*
X1049Y437D03*
X1149Y437D03*
X1249Y437D03*
X1349Y437D03*
X1349Y1037D03*
X1249Y1037D03*
X1149Y1037D03*
X1049Y1037D03*
X949Y1037D03*
X849Y1037D03*
X749Y1037D03*
X649Y1037D03*
X549Y1037D03*
X449Y1037D03*
X349Y1037D03*
X249Y1037D03*
G54D10*
X449Y1837D03*
G54D15*
X489Y1486D03*
X489Y1624D03*
G54D16*
X424Y1287D03*
X524Y1287D03*
X624Y1287D03*
X724Y1287D03*
X824Y1287D03*
X924Y1287D03*
X1024Y1287D03*
G54D10*
X1299Y1837D03*
G54D16*
X1124Y1287D03*
X1224Y1287D03*
X1324Y1287D03*
G54D11*
X1124Y1887D03*
X1024Y1887D03*
X924Y1887D03*
X824Y1887D03*
X724Y1887D03*
X624Y1887D03*
G54D17*
X2325Y1185D03*
X2226Y1185D03*
X2126Y1185D03*
X2026Y1185D03*
X1926Y1185D03*
X1024Y2137D03*
X1124Y2137D03*
X624Y2137D03*
X724Y2137D03*
G54D18*
X299Y212D03*
X399Y212D03*
X649Y212D03*
X549Y212D03*
G54D17*
X3399Y2162D03*
X3299Y2162D03*
X1399Y212D03*
X1299Y212D03*
X899Y212D03*
X799Y212D03*
X1149Y212D03*
X1049Y212D03*
G54D12*
X1999Y2062D03*
X3274Y1037D03*
X3276Y838D03*
X3824Y1787D03*
X3549Y2037D03*
G54D11*
X3474Y487D03*
X3474Y587D03*
X3474Y687D03*
X3474Y787D03*
X3474Y887D03*
X3474Y987D03*
X3474Y1087D03*
X3474Y1187D03*
X3474Y1287D03*
X3474Y1387D03*
X3474Y1487D03*
X3474Y1587D03*
X3474Y1687D03*
X3474Y1787D03*
X3474Y1887D03*
X2874Y487D03*
X2874Y587D03*
X2874Y687D03*
X2874Y787D03*
X2874Y887D03*
X2874Y987D03*
X2874Y1087D03*
X2874Y1187D03*
X2874Y1287D03*
X2874Y1387D03*
X2874Y1487D03*
X2874Y1587D03*
X2874Y1687D03*
X2874Y1787D03*
X2874Y1887D03*
X1825Y1837D03*
X1925Y1837D03*
X2025Y1837D03*
X2125Y1837D03*
X2225Y1837D03*
X2325Y1837D03*
X2325Y1437D03*
X2225Y1437D03*
X2125Y1437D03*
X2025Y1437D03*
X1925Y1437D03*
X1825Y1437D03*
X1825Y1837D03*
X1925Y1837D03*
X2025Y1837D03*
X2125Y1837D03*
X2225Y1837D03*
X2325Y1837D03*
X2325Y1437D03*
X2225Y1437D03*
X2125Y1437D03*
X2025Y1437D03*
X1925Y1437D03*
X1825Y1437D03*
G54D12*
X3474Y236D03*
G54D19*
X3824Y2162D03*
X3624Y2162D03*
X3824Y2162D03*
X3624Y2162D03*
G54D20*
X1449Y1037D03*
X1449Y1287D03*
G54D12*
X1599Y1513D03*
G54D21*
X3100Y2212D03*
G54D22*
X3474Y487D03*
G54D23*
X3470Y1687D03*
X3474Y1889D03*
X2874Y1889D03*
G54D24*
X1099Y363D02*
X824Y363D01*
D02*
X1138Y421D02*
X1099Y363D01*
D02*
X1774Y1187D02*
X1225Y1187D01*
D02*
X1864Y1126D02*
X1774Y1187D01*
D02*
X2848Y1126D02*
X1864Y1126D01*
D02*
X2867Y1171D02*
X2848Y1126D01*
D02*
X824Y363D02*
X803Y231D01*
D02*
X3325Y1163D02*
X2949Y911D01*
D02*
X1225Y1187D02*
X1138Y1273D01*
D02*
X3457Y1184D02*
X3325Y1163D01*
D02*
X1800Y413D02*
X1164Y1024D01*
D02*
X2944Y406D02*
X1800Y413D01*
D02*
X2949Y911D02*
X2944Y406D01*
D02*
X1775Y1713D02*
X2775Y1713D01*
D02*
X1768Y1918D02*
X1775Y1713D01*
D02*
X3025Y1888D02*
X2873Y1986D01*
D02*
X1825Y1987D02*
X1768Y1918D01*
D02*
X2873Y1986D02*
X1825Y1987D01*
D02*
X3025Y1562D02*
X3025Y1888D01*
D02*
X3459Y1297D02*
X3025Y1562D01*
D02*
X2775Y1713D02*
X2776Y1206D01*
D02*
X1724Y1112D02*
X1096Y1102D01*
D02*
X1809Y1058D02*
X1724Y1112D01*
D02*
X1924Y888D02*
X1798Y977D01*
D02*
X2856Y887D02*
X1924Y888D01*
D02*
X1096Y1102D02*
X1061Y1053D01*
D02*
X3548Y388D02*
X3049Y388D01*
D02*
X3544Y790D02*
X3548Y388D01*
D02*
X3659Y875D02*
X3544Y790D01*
D02*
X1672Y214D02*
X1408Y502D01*
D02*
X2849Y236D02*
X1672Y214D01*
D02*
X3049Y388D02*
X2849Y236D01*
D02*
X1408Y502D02*
X592Y502D01*
D02*
X730Y1037D02*
X669Y1037D01*
D02*
X592Y502D02*
X560Y454D01*
D02*
X1810Y555D02*
X1365Y953D01*
D02*
X830Y1037D02*
X769Y1037D01*
D02*
X624Y1267D02*
X624Y1112D01*
D02*
X624Y1112D02*
X643Y1056D01*
D02*
X949Y913D02*
X862Y1022D01*
D02*
X1136Y910D02*
X949Y913D01*
D02*
X1099Y142D02*
X1138Y197D01*
D02*
X739Y142D02*
X1099Y142D01*
D02*
X666Y199D02*
X739Y142D01*
D02*
X505Y1287D02*
X444Y1287D01*
D02*
X591Y1366D02*
X537Y1302D01*
D02*
X687Y1366D02*
X591Y1366D01*
D02*
X716Y1305D02*
X687Y1366D01*
D02*
X783Y1366D02*
X736Y1303D01*
D02*
X1287Y1366D02*
X783Y1366D01*
D02*
X1316Y1305D02*
X1287Y1366D01*
D02*
X274Y811D02*
X175Y911D01*
D02*
X1024Y788D02*
X274Y811D01*
D02*
X474Y1187D02*
X516Y1270D01*
D02*
X173Y1112D02*
X274Y1189D01*
D02*
X274Y1189D02*
X474Y1187D01*
D02*
X175Y911D02*
X173Y1112D01*
D02*
X1175Y562D02*
X1024Y788D01*
D02*
X1060Y228D02*
X1100Y287D01*
D02*
X1225Y287D02*
X1225Y88D01*
D02*
X1100Y287D02*
X1225Y287D01*
D02*
X349Y363D02*
X179Y367D01*
D02*
X675Y88D02*
X565Y197D01*
D02*
X1225Y88D02*
X675Y88D01*
D02*
X179Y367D02*
X174Y487D01*
D02*
X174Y487D02*
X275Y587D01*
D02*
X275Y587D02*
X1175Y562D01*
D02*
X532Y225D02*
X349Y363D01*
D02*
X3608Y1651D02*
X3491Y1595D01*
D02*
X3124Y762D02*
X3124Y929D01*
D02*
X3458Y595D02*
X3124Y762D01*
D02*
X3738Y1573D02*
X3851Y1461D01*
D02*
X3849Y438D02*
X3700Y311D01*
D02*
X3700Y311D02*
X3082Y312D01*
D02*
X3851Y1461D02*
X3849Y438D01*
D02*
X3706Y1880D02*
X3491Y1794D01*
D02*
X1300Y88D02*
X1300Y193D01*
D02*
X3917Y112D02*
X1300Y88D01*
D02*
X3200Y2287D02*
X2200Y2287D01*
D02*
X3459Y1597D02*
X3199Y1762D01*
D02*
X3199Y1762D02*
X3200Y2287D01*
D02*
X2200Y2287D02*
X2005Y2068D01*
D02*
X3275Y1029D02*
X3276Y846D01*
D02*
X3549Y2037D02*
X3825Y2038D01*
D02*
X3825Y2038D02*
X3824Y1795D01*
D02*
X940Y1900D02*
X1076Y2013D01*
D02*
X1076Y2013D02*
X1476Y2013D01*
D02*
X1476Y2013D02*
X1675Y2213D01*
D02*
X1675Y2213D02*
X1867Y2212D01*
D02*
X904Y1887D02*
X844Y1887D01*
D02*
X1175Y562D02*
X1467Y562D01*
D02*
X1675Y1754D02*
X1676Y1586D01*
D02*
X1676Y1586D02*
X1810Y1451D01*
D02*
X2675Y1787D02*
X2548Y1937D01*
D02*
X2548Y1937D02*
X2325Y1937D01*
D02*
X2325Y1937D02*
X2239Y1851D01*
D02*
X2856Y1787D02*
X2675Y1787D01*
D02*
X1832Y1419D02*
X1919Y1203D01*
D02*
X2225Y1417D02*
X2226Y1204D01*
D02*
X2125Y1417D02*
X2126Y1204D01*
D02*
X3304Y2144D02*
X3374Y1861D01*
D02*
X3374Y1861D02*
X3460Y1798D01*
D02*
X3899Y1536D02*
X3739Y1674D01*
D02*
X3774Y236D02*
X3899Y337D01*
D02*
X3899Y337D02*
X3899Y1536D01*
D02*
X3482Y236D02*
X3774Y236D01*
D02*
X3474Y1905D02*
X3474Y2087D01*
D02*
X3474Y2087D02*
X3725Y2087D01*
D02*
X3725Y2087D02*
X3812Y2153D01*
D02*
X1432Y1037D02*
X1369Y1037D01*
D02*
X1432Y1287D02*
X1344Y1287D01*
D02*
X1595Y1506D02*
X1459Y1302D01*
G04 End of Copper1*
M02*